<mxfile host="app.diagrams.net" modified="2022-02-16T18:57:10.977Z" agent="5.0 (Windows NT 6.1; WOW64) AppleWebKit/537.36 (KHTML, like Gecko) Chrome/81.0.4044.142 Safari/537.36" etag="N8neFiIss27gMLurpfpK" version="16.5.6" type="github">
  <diagram id="5g8-hPMFteUb-OUPAxaN" name="Page-1">
    <mxGraphModel dx="1388" dy="759" grid="1" gridSize="10" guides="1" tooltips="1" connect="1" arrows="1" fold="1" page="1" pageScale="1" pageWidth="1169" pageHeight="827" math="0" shadow="0">
      <root>
        <mxCell id="0" />
        <mxCell id="1" parent="0" />
        <mxCell id="WBTtcWVcJEQccZ8GTgFi-2" value="" style="edgeStyle=orthogonalEdgeStyle;rounded=0;orthogonalLoop=1;jettySize=auto;html=1;entryX=0.5;entryY=0;entryDx=0;entryDy=0;strokeWidth=2;" edge="1" parent="1" source="DbpF_rKEkl-duHGAl1TP-2" target="DbpF_rKEkl-duHGAl1TP-10">
          <mxGeometry relative="1" as="geometry">
            <mxPoint x="360" y="120" as="targetPoint" />
          </mxGeometry>
        </mxCell>
        <mxCell id="DbpF_rKEkl-duHGAl1TP-2" value="Projekt Remote-Desktop-Server" style="swimlane;fontStyle=1;childLayout=stackLayout;horizontal=1;startSize=30;horizontalStack=0;resizeParent=1;resizeParentMax=0;resizeLast=0;collapsible=1;marginBottom=0;sketch=1;shadow=1;rounded=1;fontFamily=Comic Sans MS;fontSize=16;flipH=1;fillColor=#bac8d3;strokeColor=#23445d;fillStyle=solid;" parent="1" vertex="1">
          <mxGeometry x="440" y="60" width="280" height="120" as="geometry" />
        </mxCell>
        <mxCell id="DbpF_rKEkl-duHGAl1TP-3" value="Apache Guacamole-Instanz" style="text;strokeColor=none;fillColor=none;align=left;verticalAlign=middle;spacingLeft=4;spacingRight=4;overflow=hidden;points=[[0,0.5],[1,0.5]];portConstraint=eastwest;rotatable=0;fontFamily=Comic Sans MS;labelPosition=center;verticalLabelPosition=middle;fontSize=14;labelBackgroundColor=none;fontColor=#67AB9F;" parent="DbpF_rKEkl-duHGAl1TP-2" vertex="1">
          <mxGeometry y="30" width="280" height="30" as="geometry" />
        </mxCell>
        <mxCell id="DbpF_rKEkl-duHGAl1TP-4" value="OPNsense-Firewall" style="text;strokeColor=none;fillColor=none;align=left;verticalAlign=middle;spacingLeft=4;spacingRight=4;overflow=hidden;points=[[0,0.5],[1,0.5]];portConstraint=eastwest;rotatable=0;fontFamily=Comic Sans MS;labelPosition=center;verticalLabelPosition=middle;fontSize=14;labelBackgroundColor=none;fontColor=#FF8000;" parent="DbpF_rKEkl-duHGAl1TP-2" vertex="1">
          <mxGeometry y="60" width="280" height="30" as="geometry" />
        </mxCell>
        <mxCell id="DbpF_rKEkl-duHGAl1TP-5" value="NGinX-Proxy" style="text;strokeColor=none;fillColor=none;align=left;verticalAlign=middle;spacingLeft=4;spacingRight=4;overflow=hidden;points=[[0,0.5],[1,0.5]];portConstraint=eastwest;rotatable=0;fontFamily=Comic Sans MS;labelPosition=center;verticalLabelPosition=middle;fontSize=14;labelBackgroundColor=none;fontColor=#009900;" parent="DbpF_rKEkl-duHGAl1TP-2" vertex="1">
          <mxGeometry y="90" width="280" height="30" as="geometry" />
        </mxCell>
        <mxCell id="DbpF_rKEkl-duHGAl1TP-6" value="Apache Guacamole" style="swimlane;rounded=1;shadow=1;labelBackgroundColor=none;sketch=1;fontFamily=Comic Sans MS;fontSize=14;fillColor=#6d8764;strokeColor=#3A5431;fillStyle=solid;fontColor=#ffffff;" parent="1" vertex="1">
          <mxGeometry x="200" y="360" width="200" height="80" as="geometry" />
        </mxCell>
        <mxCell id="DbpF_rKEkl-duHGAl1TP-7" value="OPNsense" style="swimlane;rounded=1;shadow=1;labelBackgroundColor=none;sketch=1;fontFamily=Comic Sans MS;fontSize=14;fillColor=#f0a30a;strokeColor=#BD7000;fillStyle=solid;fontColor=#000000;" parent="1" vertex="1">
          <mxGeometry x="480" y="360" width="200" height="80" as="geometry" />
        </mxCell>
        <mxCell id="DbpF_rKEkl-duHGAl1TP-8" value="NGinX" style="swimlane;rounded=1;shadow=1;labelBackgroundColor=none;sketch=1;fontFamily=Comic Sans MS;fontSize=14;fillColor=#008a00;strokeColor=#005700;fillStyle=solid;fontColor=#ffffff;" parent="1" vertex="1">
          <mxGeometry x="760" y="360" width="200" height="80" as="geometry" />
        </mxCell>
        <mxCell id="DbpF_rKEkl-duHGAl1TP-10" value="" style="rounded=1;whiteSpace=wrap;html=1;shadow=1;labelBackgroundColor=none;sketch=1;fillStyle=solid;fontFamily=Comic Sans MS;fontSize=14;fillColor=#ffcd28;strokeColor=#d79b00;gradientColor=#ffa500;" parent="1" vertex="1">
          <mxGeometry x="200" y="220" width="760" height="40" as="geometry" />
        </mxCell>
        <mxCell id="WBTtcWVcJEQccZ8GTgFi-3" value="" style="edgeStyle=orthogonalEdgeStyle;orthogonalLoop=1;jettySize=auto;html=1;entryX=0.5;entryY=0;entryDx=0;entryDy=0;strokeWidth=2;exitX=0.25;exitY=1;exitDx=0;exitDy=0;rounded=1;" edge="1" parent="1" source="DbpF_rKEkl-duHGAl1TP-10" target="DbpF_rKEkl-duHGAl1TP-6">
          <mxGeometry relative="1" as="geometry">
            <mxPoint x="490" y="500" as="targetPoint" />
            <mxPoint x="490" y="460" as="sourcePoint" />
          </mxGeometry>
        </mxCell>
        <mxCell id="WBTtcWVcJEQccZ8GTgFi-4" value="" style="edgeStyle=orthogonalEdgeStyle;orthogonalLoop=1;jettySize=auto;html=1;entryX=0.5;entryY=0;entryDx=0;entryDy=0;strokeWidth=2;exitX=0.5;exitY=1;exitDx=0;exitDy=0;rounded=1;" edge="1" parent="1" source="DbpF_rKEkl-duHGAl1TP-10" target="DbpF_rKEkl-duHGAl1TP-7">
          <mxGeometry relative="1" as="geometry">
            <mxPoint x="580" y="540" as="targetPoint" />
            <mxPoint x="670.0000000000002" y="480" as="sourcePoint" />
          </mxGeometry>
        </mxCell>
        <mxCell id="WBTtcWVcJEQccZ8GTgFi-5" value="" style="edgeStyle=orthogonalEdgeStyle;orthogonalLoop=1;jettySize=auto;html=1;entryX=0.5;entryY=0;entryDx=0;entryDy=0;strokeWidth=2;exitX=0.75;exitY=1;exitDx=0;exitDy=0;rounded=1;" edge="1" parent="1" source="DbpF_rKEkl-duHGAl1TP-10" target="DbpF_rKEkl-duHGAl1TP-8">
          <mxGeometry relative="1" as="geometry">
            <mxPoint x="590" y="330" as="targetPoint" />
            <mxPoint x="590" y="270" as="sourcePoint" />
          </mxGeometry>
        </mxCell>
      </root>
    </mxGraphModel>
  </diagram>
</mxfile>
